<svg xmlns="http://www.w3.org/2000/svg" width="1200" height="900" viewBox="0 0 1200 900">
<rect width="100%" height="100%" fill="white"/>
<text x="600.0" y="24" text-anchor="middle" font-size="20" font-family="monospace">Average Post-Reconstruction Metrics by Regime and Dictionary Size</text>
<rect x="20" y="50" width="540" height="240" fill="none" stroke="#ddd"/>
<text x="290.0" y="68" text-anchor="middle" font-size="14" font-family="monospace">overall_score model A</text>
<line x1="70" y1="255" x2="560" y2="255" stroke="black"/>
<line x1="70" y1="75" x2="70" y2="255" stroke="black"/>
<text x="131.25" y="273" text-anchor="middle" font-size="10" font-family="monospace">CrossCoder + L1</text>
<rect x="78.0" y="250.40932642487047" width="34.833333333333336" height="4.590673575129529" fill="#1b6ca8"/>
<rect x="118.83333333333334" y="250.21243523316062" width="34.833333333333336" height="4.787564766839381" fill="#c94c4c"/>
<text x="253.75" y="273" text-anchor="middle" font-size="10" font-family="monospace">CrossCoder no-L1</text>
<rect x="200.5" y="250.01554404145077" width="34.833333333333336" height="4.984455958549233" fill="#1b6ca8"/>
<rect x="241.33333333333334" y="251.26943005181346" width="34.833333333333336" height="3.7305699481865418" fill="#c94c4c"/>
<text x="376.25" y="273" text-anchor="middle" font-size="10" font-family="monospace">DFC free-exclusive</text>
<rect x="323.0" y="250.22279792746113" width="34.833333333333336" height="4.77720207253887" fill="#1b6ca8"/>
<rect x="363.8333333333333" y="250.7685664939551" width="34.833333333333336" height="4.231433506044908" fill="#c94c4c"/>
<text x="498.75" y="273" text-anchor="middle" font-size="10" font-family="monospace">DFC penalized-exclusive</text>
<rect x="445.5" y="251.01381692573403" width="34.833333333333336" height="3.9861830742659663" fill="#1b6ca8"/>
<rect x="486.3333333333333" y="250.80699481865284" width="34.833333333333336" height="4.193005181347161" fill="#c94c4c"/>
<line x1="70" y1="255.0" x2="560" y2="255.0" stroke="#eee"/>
<text x="62" y="259.0" text-anchor="end" font-size="10" font-family="monospace">-0.90</text>
<line x1="70" y1="165.0" x2="560" y2="165.0" stroke="#eee"/>
<text x="62" y="169.0" text-anchor="end" font-size="10" font-family="monospace">28.05</text>
<line x1="70" y1="75.0" x2="560" y2="75.0" stroke="#eee"/>
<text x="62" y="79.0" text-anchor="end" font-size="10" font-family="monospace">57.00</text>
<rect x="580" y="50" width="540" height="240" fill="none" stroke="#ddd"/>
<text x="850.0" y="68" text-anchor="middle" font-size="14" font-family="monospace">overall_score model B</text>
<line x1="630" y1="255" x2="1120" y2="255" stroke="black"/>
<line x1="630" y1="75" x2="630" y2="255" stroke="black"/>
<text x="691.25" y="273" text-anchor="middle" font-size="10" font-family="monospace">CrossCoder + L1</text>
<rect x="638.0" y="254.91709844559585" width="34.833333333333336" height="0.08290155440414537" fill="#1b6ca8"/>
<rect x="678.8333333333334" y="254.91709844559585" width="34.833333333333336" height="0.08290155440414537" fill="#c94c4c"/>
<text x="813.75" y="273" text-anchor="middle" font-size="10" font-family="monospace">CrossCoder no-L1</text>
<rect x="760.5" y="254.79274611398964" width="34.833333333333336" height="0.20725388601036343" fill="#1b6ca8"/>
<rect x="801.3333333333334" y="254.39896373056996" width="34.833333333333336" height="0.6010362694300397" fill="#c94c4c"/>
<text x="936.25" y="273" text-anchor="middle" font-size="10" font-family="monospace">DFC free-exclusive</text>
<rect x="883.0" y="255.0" width="34.833333333333336" height="0.0" fill="#1b6ca8"/>
<rect x="923.8333333333334" y="254.91018998272884" width="34.833333333333336" height="0.08981001727116222" fill="#c94c4c"/>
<text x="1058.75" y="273" text-anchor="middle" font-size="10" font-family="monospace">DFC penalized-exclusive</text>
<rect x="1005.5" y="254.89637305699483" width="34.833333333333336" height="0.1036269430051675" fill="#1b6ca8"/>
<rect x="1046.3333333333333" y="254.97668393782382" width="34.833333333333336" height="0.02331606217617832" fill="#c94c4c"/>
<line x1="630" y1="255.0" x2="1120" y2="255.0" stroke="#eee"/>
<text x="622" y="259.0" text-anchor="end" font-size="10" font-family="monospace">-0.90</text>
<line x1="630" y1="165.0" x2="1120" y2="165.0" stroke="#eee"/>
<text x="622" y="169.0" text-anchor="end" font-size="10" font-family="monospace">28.05</text>
<line x1="630" y1="75.0" x2="1120" y2="75.0" stroke="#eee"/>
<text x="622" y="79.0" text-anchor="end" font-size="10" font-family="monospace">57.00</text>
<rect x="20" y="300" width="540" height="240" fill="none" stroke="#ddd"/>
<text x="290.0" y="318" text-anchor="middle" font-size="14" font-family="monospace">format_accuracy model A</text>
<line x1="70" y1="505" x2="560" y2="505" stroke="black"/>
<line x1="70" y1="325" x2="70" y2="505" stroke="black"/>
<text x="131.25" y="523" text-anchor="middle" font-size="10" font-family="monospace">CrossCoder + L1</text>
<rect x="78.0" y="339.5077720207254" width="34.833333333333336" height="165.49222797927462" fill="#1b6ca8"/>
<rect x="118.83333333333334" y="334.3264248704663" width="34.833333333333336" height="170.67357512953367" fill="#c94c4c"/>
<text x="253.75" y="523" text-anchor="middle" font-size="10" font-family="monospace">CrossCoder no-L1</text>
<rect x="200.5" y="325.0" width="34.833333333333336" height="180.0" fill="#1b6ca8"/>
<rect x="241.33333333333334" y="367.48704663212436" width="34.833333333333336" height="137.51295336787564" fill="#c94c4c"/>
<text x="376.25" y="523" text-anchor="middle" font-size="10" font-family="monospace">DFC free-exclusive</text>
<rect x="323.0" y="333.2901554404145" width="34.833333333333336" height="171.70984455958552" fill="#1b6ca8"/>
<rect x="363.8333333333333" y="351.25215889464596" width="34.833333333333336" height="153.74784110535404" fill="#c94c4c"/>
<text x="498.75" y="523" text-anchor="middle" font-size="10" font-family="monospace">DFC penalized-exclusive</text>
<rect x="445.5" y="359.1968911917098" width="34.833333333333336" height="145.80310880829018" fill="#1b6ca8"/>
<rect x="486.3333333333333" y="354.14507772020727" width="34.833333333333336" height="150.85492227979273" fill="#c94c4c"/>
<line x1="70" y1="505.0" x2="560" y2="505.0" stroke="#eee"/>
<text x="62" y="509.0" text-anchor="end" font-size="10" font-family="monospace">-0.90</text>
<line x1="70" y1="415.0" x2="560" y2="415.0" stroke="#eee"/>
<text x="62" y="419.0" text-anchor="end" font-size="10" font-family="monospace">28.05</text>
<line x1="70" y1="325.0" x2="560" y2="325.0" stroke="#eee"/>
<text x="62" y="329.0" text-anchor="end" font-size="10" font-family="monospace">57.00</text>
<rect x="580" y="300" width="540" height="240" fill="none" stroke="#ddd"/>
<text x="850.0" y="318" text-anchor="middle" font-size="14" font-family="monospace">format_accuracy model B</text>
<line x1="630" y1="505" x2="1120" y2="505" stroke="black"/>
<line x1="630" y1="325" x2="630" y2="505" stroke="black"/>
<text x="691.25" y="523" text-anchor="middle" font-size="10" font-family="monospace">CrossCoder + L1</text>
<rect x="638.0" y="502.2020725388601" width="34.833333333333336" height="2.7979274611399205" fill="#1b6ca8"/>
<rect x="678.8333333333334" y="502.2020725388601" width="34.833333333333336" height="2.7979274611399205" fill="#c94c4c"/>
<text x="813.75" y="523" text-anchor="middle" font-size="10" font-family="monospace">CrossCoder no-L1</text>
<rect x="760.5" y="502.2020725388601" width="34.833333333333336" height="2.7979274611399205" fill="#1b6ca8"/>
<rect x="801.3333333333334" y="502.2020725388601" width="34.833333333333336" height="2.7979274611399205" fill="#c94c4c"/>
<text x="936.25" y="523" text-anchor="middle" font-size="10" font-family="monospace">DFC free-exclusive</text>
<rect x="883.0" y="502.2020725388601" width="34.833333333333336" height="2.7979274611399205" fill="#1b6ca8"/>
<rect x="923.8333333333334" y="502.2020725388601" width="34.833333333333336" height="2.7979274611399205" fill="#c94c4c"/>
<text x="1058.75" y="523" text-anchor="middle" font-size="10" font-family="monospace">DFC penalized-exclusive</text>
<rect x="1005.5" y="502.2020725388601" width="34.833333333333336" height="2.7979274611399205" fill="#1b6ca8"/>
<rect x="1046.3333333333333" y="502.2020725388601" width="34.833333333333336" height="2.7979274611399205" fill="#c94c4c"/>
<line x1="630" y1="505.0" x2="1120" y2="505.0" stroke="#eee"/>
<text x="622" y="509.0" text-anchor="end" font-size="10" font-family="monospace">-0.90</text>
<line x1="630" y1="415.0" x2="1120" y2="415.0" stroke="#eee"/>
<text x="622" y="419.0" text-anchor="end" font-size="10" font-family="monospace">28.05</text>
<line x1="630" y1="325.0" x2="1120" y2="325.0" stroke="#eee"/>
<text x="622" y="329.0" text-anchor="end" font-size="10" font-family="monospace">57.00</text>
<rect x="20" y="550" width="540" height="240" fill="none" stroke="#ddd"/>
<text x="290.0" y="568" text-anchor="middle" font-size="14" font-family="monospace">tool_correctness model A</text>
<line x1="70" y1="755" x2="560" y2="755" stroke="black"/>
<line x1="70" y1="575" x2="70" y2="755" stroke="black"/>
<text x="131.25" y="773" text-anchor="middle" font-size="10" font-family="monospace">CrossCoder + L1</text>
<rect x="78.0" y="588.4715025906736" width="34.833333333333336" height="166.5284974093264" fill="#1b6ca8"/>
<rect x="118.83333333333334" y="581.217616580311" width="34.833333333333336" height="173.78238341968904" fill="#c94c4c"/>
<text x="253.75" y="773" text-anchor="middle" font-size="10" font-family="monospace">CrossCoder no-L1</text>
<rect x="200.5" y="576.0362694300518" width="34.833333333333336" height="178.9637305699482" fill="#1b6ca8"/>
<rect x="241.33333333333334" y="617.4870466321244" width="34.833333333333336" height="137.51295336787564" fill="#c94c4c"/>
<text x="376.25" y="773" text-anchor="middle" font-size="10" font-family="monospace">DFC free-exclusive</text>
<rect x="323.0" y="582.2538860103627" width="34.833333333333336" height="172.74611398963725" fill="#1b6ca8"/>
<rect x="363.8333333333333" y="600.5613126079447" width="34.833333333333336" height="154.43868739205527" fill="#c94c4c"/>
<text x="498.75" y="773" text-anchor="middle" font-size="10" font-family="monospace">DFC penalized-exclusive</text>
<rect x="445.5" y="608.8514680483593" width="34.833333333333336" height="146.14853195164073" fill="#1b6ca8"/>
<rect x="486.3333333333333" y="601.0362694300518" width="34.833333333333336" height="153.9637305699482" fill="#c94c4c"/>
<line x1="70" y1="755.0" x2="560" y2="755.0" stroke="#eee"/>
<text x="62" y="759.0" text-anchor="end" font-size="10" font-family="monospace">-0.90</text>
<line x1="70" y1="665.0" x2="560" y2="665.0" stroke="#eee"/>
<text x="62" y="669.0" text-anchor="end" font-size="10" font-family="monospace">28.05</text>
<line x1="70" y1="575.0" x2="560" y2="575.0" stroke="#eee"/>
<text x="62" y="579.0" text-anchor="end" font-size="10" font-family="monospace">57.00</text>
<rect x="580" y="550" width="540" height="240" fill="none" stroke="#ddd"/>
<text x="850.0" y="568" text-anchor="middle" font-size="14" font-family="monospace">tool_correctness model B</text>
<line x1="630" y1="755" x2="1120" y2="755" stroke="black"/>
<line x1="630" y1="575" x2="630" y2="755" stroke="black"/>
<text x="691.25" y="773" text-anchor="middle" font-size="10" font-family="monospace">CrossCoder + L1</text>
<rect x="638.0" y="732.5129533678756" width="34.833333333333336" height="22.48704663212436" fill="#1b6ca8"/>
<rect x="678.8333333333334" y="732.5129533678756" width="34.833333333333336" height="22.48704663212436" fill="#c94c4c"/>
<text x="813.75" y="773" text-anchor="middle" font-size="10" font-family="monospace">CrossCoder no-L1</text>
<rect x="760.5" y="726.2953367875648" width="34.833333333333336" height="28.704663212435207" fill="#1b6ca8"/>
<rect x="801.3333333333334" y="706.6062176165804" width="34.833333333333336" height="48.39378238341965" fill="#c94c4c"/>
<text x="936.25" y="773" text-anchor="middle" font-size="10" font-family="monospace">DFC free-exclusive</text>
<rect x="883.0" y="736.6580310880829" width="34.833333333333336" height="18.341968911917093" fill="#1b6ca8"/>
<rect x="923.8333333333334" y="732.1675302245251" width="34.833333333333336" height="22.83246977547492" fill="#c94c4c"/>
<text x="1058.75" y="773" text-anchor="middle" font-size="10" font-family="monospace">DFC penalized-exclusive</text>
<rect x="1005.5" y="731.4766839378239" width="34.833333333333336" height="23.52331606217615" fill="#1b6ca8"/>
<rect x="1046.3333333333333" y="735.4922279792746" width="34.833333333333336" height="19.507772020725383" fill="#c94c4c"/>
<line x1="630" y1="755.0" x2="1120" y2="755.0" stroke="#eee"/>
<text x="622" y="759.0" text-anchor="end" font-size="10" font-family="monospace">-0.90</text>
<line x1="630" y1="665.0" x2="1120" y2="665.0" stroke="#eee"/>
<text x="622" y="669.0" text-anchor="end" font-size="10" font-family="monospace">28.05</text>
<line x1="630" y1="575.0" x2="1120" y2="575.0" stroke="#eee"/>
<text x="622" y="579.0" text-anchor="end" font-size="10" font-family="monospace">57.00</text>
<rect x="1020" y="840" width="14" height="14" fill="#1b6ca8"/>
<text x="1040" y="852" font-size="11" font-family="monospace">D8192</text>
<rect x="1020" y="858" width="14" height="14" fill="#c94c4c"/>
<text x="1040" y="870" font-size="11" font-family="monospace">D16384</text>
</svg>
