<svg xmlns="http://www.w3.org/2000/svg" width="800" height="770" viewBox="0 0 800 770">
<rect width="100%" height="100%" fill="white"/>
<text x="400.0" y="24" text-anchor="middle" font-size="20" font-family="monospace">Post-Reconstruction Metrics vs TopK (dict_size=8192)</text>
<rect x="8" y="45" width="384" height="224" fill="none" stroke="#ddd"/>
<text x="200.0" y="58" text-anchor="middle" font-size="14" font-family="monospace">format_accuracy model A</text>
<line x1="60" y1="235" x2="380" y2="235" stroke="black"/>
<line x1="60" y1="65" x2="60" y2="235" stroke="black"/>
<line x1="60.0" y1="235" x2="60.0" y2="239" stroke="black"/>
<text x="60.0" y="253" text-anchor="middle" font-size="11" font-family="monospace">45</text>
<line x1="185.2173913043478" y1="235" x2="185.2173913043478" y2="239" stroke="black"/>
<text x="185.2173913043478" y="253" text-anchor="middle" font-size="11" font-family="monospace">90</text>
<line x1="380.0" y1="235" x2="380.0" y2="239" stroke="black"/>
<text x="380.0" y="253" text-anchor="middle" font-size="11" font-family="monospace">160</text>
<line x1="60" y1="235.0" x2="380" y2="235.0" stroke="#eee"/>
<text x="52" y="239.0" text-anchor="end" font-size="10" font-family="monospace">-1.00</text>
<line x1="60" y1="192.5" x2="380" y2="192.5" stroke="#eee"/>
<text x="52" y="196.5" text-anchor="end" font-size="10" font-family="monospace">20.00</text>
<line x1="60" y1="150.0" x2="380" y2="150.0" stroke="#eee"/>
<text x="52" y="154.0" text-anchor="end" font-size="10" font-family="monospace">41.00</text>
<line x1="60" y1="107.5" x2="380" y2="107.5" stroke="#eee"/>
<text x="52" y="111.5" text-anchor="end" font-size="10" font-family="monospace">62.00</text>
<line x1="60" y1="65.0" x2="380" y2="65.0" stroke="#eee"/>
<text x="52" y="69.0" text-anchor="end" font-size="10" font-family="monospace">83.00</text>
<text x="200.0" y="272" text-anchor="middle" font-size="11" font-family="monospace">TopK</text>
<polyline fill="none" stroke="#1b6ca8" stroke-width="2" points="60.00,115.60 185.22,131.79 380.00,133.81"/>
<circle cx="60.00" cy="115.60" r="3" fill="#1b6ca8"/>
<circle cx="185.22" cy="131.79" r="3" fill="#1b6ca8"/>
<circle cx="380.00" cy="133.81" r="3" fill="#1b6ca8"/>
<line x1="260" y1="65" x2="276" y2="65" stroke="#1b6ca8" stroke-width="2"/>
<text x="280" y="69" font-size="10" font-family="monospace">CrossCoder + L1, excl=0%</text>
<polyline fill="none" stroke="#c94c4c" stroke-width="2" points="60.00,91.31 185.22,111.55 380.00,150.00"/>
<circle cx="60.00" cy="91.31" r="3" fill="#c94c4c"/>
<circle cx="185.22" cy="111.55" r="3" fill="#c94c4c"/>
<circle cx="380.00" cy="150.00" r="3" fill="#c94c4c"/>
<line x1="260" y1="79" x2="276" y2="79" stroke="#c94c4c" stroke-width="2"/>
<text x="280" y="83" font-size="10" font-family="monospace">CrossCoder no-L1, excl=0%</text>
<polyline fill="none" stroke="#2f855a" stroke-width="2" points="60.00,133.81 185.22,160.12 380.00,119.64"/>
<circle cx="60.00" cy="133.81" r="3" fill="#2f855a"/>
<circle cx="185.22" cy="160.12" r="3" fill="#2f855a"/>
<circle cx="380.00" cy="119.64" r="3" fill="#2f855a"/>
<line x1="260" y1="93" x2="276" y2="93" stroke="#2f855a" stroke-width="2"/>
<text x="280" y="97" font-size="10" font-family="monospace">DFC free-exclusive, excl=3%</text>
<polyline fill="none" stroke="#b7791f" stroke-width="2" points="60.00,117.62 185.22,103.45 380.00,129.76"/>
<circle cx="60.00" cy="117.62" r="3" fill="#b7791f"/>
<circle cx="185.22" cy="103.45" r="3" fill="#b7791f"/>
<circle cx="380.00" cy="129.76" r="3" fill="#b7791f"/>
<line x1="260" y1="107" x2="276" y2="107" stroke="#b7791f" stroke-width="2"/>
<text x="280" y="111" font-size="10" font-family="monospace">DFC free-exclusive, excl=5%</text>
<polyline fill="none" stroke="#6b46c1" stroke-width="2" points="60.00,150.00 185.22,127.74 380.00,65.00"/>
<circle cx="60.00" cy="150.00" r="3" fill="#6b46c1"/>
<circle cx="185.22" cy="127.74" r="3" fill="#6b46c1"/>
<circle cx="380.00" cy="65.00" r="3" fill="#6b46c1"/>
<line x1="260" y1="121" x2="276" y2="121" stroke="#6b46c1" stroke-width="2"/>
<text x="280" y="125" font-size="10" font-family="monospace">DFC free-exclusive, excl=10%</text>
<polyline fill="none" stroke="#0f766e" stroke-width="2" points="60.00,143.93 185.22,143.93 380.00,131.79"/>
<circle cx="60.00" cy="143.93" r="3" fill="#0f766e"/>
<circle cx="185.22" cy="143.93" r="3" fill="#0f766e"/>
<circle cx="380.00" cy="131.79" r="3" fill="#0f766e"/>
<line x1="260" y1="135" x2="276" y2="135" stroke="#0f766e" stroke-width="2"/>
<text x="280" y="139" font-size="10" font-family="monospace">DFC penalized-exclusive, excl=3%</text>
<polyline fill="none" stroke="#9f1239" stroke-width="2" points="60.00,141.90 185.22,129.76 380.00,180.36"/>
<circle cx="60.00" cy="141.90" r="3" fill="#9f1239"/>
<circle cx="185.22" cy="129.76" r="3" fill="#9f1239"/>
<circle cx="380.00" cy="180.36" r="3" fill="#9f1239"/>
<line x1="260" y1="149" x2="276" y2="149" stroke="#9f1239" stroke-width="2"/>
<text x="280" y="153" font-size="10" font-family="monospace">DFC penalized-exclusive, excl=5%</text>
<polyline fill="none" stroke="#4a5568" stroke-width="2" points="60.00,119.64 185.22,123.69 380.00,143.93"/>
<circle cx="60.00" cy="119.64" r="3" fill="#4a5568"/>
<circle cx="185.22" cy="123.69" r="3" fill="#4a5568"/>
<circle cx="380.00" cy="143.93" r="3" fill="#4a5568"/>
<line x1="260" y1="163" x2="276" y2="163" stroke="#4a5568" stroke-width="2"/>
<text x="280" y="167" font-size="10" font-family="monospace">DFC penalized-exclusive, excl=10%</text>
<rect x="408" y="45" width="384" height="224" fill="none" stroke="#ddd"/>
<text x="600.0" y="58" text-anchor="middle" font-size="14" font-family="monospace">format_accuracy model B</text>
<line x1="460" y1="235" x2="780" y2="235" stroke="black"/>
<line x1="460" y1="65" x2="460" y2="235" stroke="black"/>
<line x1="460.0" y1="235" x2="460.0" y2="239" stroke="black"/>
<text x="460.0" y="253" text-anchor="middle" font-size="11" font-family="monospace">45</text>
<line x1="585.2173913043479" y1="235" x2="585.2173913043479" y2="239" stroke="black"/>
<text x="585.2173913043479" y="253" text-anchor="middle" font-size="11" font-family="monospace">90</text>
<line x1="780.0" y1="235" x2="780.0" y2="239" stroke="black"/>
<text x="780.0" y="253" text-anchor="middle" font-size="11" font-family="monospace">160</text>
<line x1="460" y1="235.0" x2="780" y2="235.0" stroke="#eee"/>
<text x="452" y="239.0" text-anchor="end" font-size="10" font-family="monospace">-1.00</text>
<line x1="460" y1="192.5" x2="780" y2="192.5" stroke="#eee"/>
<text x="452" y="196.5" text-anchor="end" font-size="10" font-family="monospace">20.00</text>
<line x1="460" y1="150.0" x2="780" y2="150.0" stroke="#eee"/>
<text x="452" y="154.0" text-anchor="end" font-size="10" font-family="monospace">41.00</text>
<line x1="460" y1="107.5" x2="780" y2="107.5" stroke="#eee"/>
<text x="452" y="111.5" text-anchor="end" font-size="10" font-family="monospace">62.00</text>
<line x1="460" y1="65.0" x2="780" y2="65.0" stroke="#eee"/>
<text x="452" y="69.0" text-anchor="end" font-size="10" font-family="monospace">83.00</text>
<text x="600.0" y="272" text-anchor="middle" font-size="11" font-family="monospace">TopK</text>
<polyline fill="none" stroke="#1b6ca8" stroke-width="2" points="460.00,232.98 585.22,232.98 780.00,232.98"/>
<circle cx="460.00" cy="232.98" r="3" fill="#1b6ca8"/>
<circle cx="585.22" cy="232.98" r="3" fill="#1b6ca8"/>
<circle cx="780.00" cy="232.98" r="3" fill="#1b6ca8"/>
<line x1="660" y1="65" x2="676" y2="65" stroke="#1b6ca8" stroke-width="2"/>
<text x="680" y="69" font-size="10" font-family="monospace">CrossCoder + L1, excl=0%</text>
<polyline fill="none" stroke="#c94c4c" stroke-width="2" points="460.00,232.98 585.22,232.98 780.00,232.98"/>
<circle cx="460.00" cy="232.98" r="3" fill="#c94c4c"/>
<circle cx="585.22" cy="232.98" r="3" fill="#c94c4c"/>
<circle cx="780.00" cy="232.98" r="3" fill="#c94c4c"/>
<line x1="660" y1="79" x2="676" y2="79" stroke="#c94c4c" stroke-width="2"/>
<text x="680" y="83" font-size="10" font-family="monospace">CrossCoder no-L1, excl=0%</text>
<polyline fill="none" stroke="#2f855a" stroke-width="2" points="460.00,232.98 585.22,232.98 780.00,232.98"/>
<circle cx="460.00" cy="232.98" r="3" fill="#2f855a"/>
<circle cx="585.22" cy="232.98" r="3" fill="#2f855a"/>
<circle cx="780.00" cy="232.98" r="3" fill="#2f855a"/>
<line x1="660" y1="93" x2="676" y2="93" stroke="#2f855a" stroke-width="2"/>
<text x="680" y="97" font-size="10" font-family="monospace">DFC free-exclusive, excl=3%</text>
<polyline fill="none" stroke="#b7791f" stroke-width="2" points="460.00,232.98 585.22,232.98 780.00,232.98"/>
<circle cx="460.00" cy="232.98" r="3" fill="#b7791f"/>
<circle cx="585.22" cy="232.98" r="3" fill="#b7791f"/>
<circle cx="780.00" cy="232.98" r="3" fill="#b7791f"/>
<line x1="660" y1="107" x2="676" y2="107" stroke="#b7791f" stroke-width="2"/>
<text x="680" y="111" font-size="10" font-family="monospace">DFC free-exclusive, excl=5%</text>
<polyline fill="none" stroke="#6b46c1" stroke-width="2" points="460.00,232.98 585.22,232.98 780.00,232.98"/>
<circle cx="460.00" cy="232.98" r="3" fill="#6b46c1"/>
<circle cx="585.22" cy="232.98" r="3" fill="#6b46c1"/>
<circle cx="780.00" cy="232.98" r="3" fill="#6b46c1"/>
<line x1="660" y1="121" x2="676" y2="121" stroke="#6b46c1" stroke-width="2"/>
<text x="680" y="125" font-size="10" font-family="monospace">DFC free-exclusive, excl=10%</text>
<polyline fill="none" stroke="#0f766e" stroke-width="2" points="460.00,232.98 585.22,232.98 780.00,232.98"/>
<circle cx="460.00" cy="232.98" r="3" fill="#0f766e"/>
<circle cx="585.22" cy="232.98" r="3" fill="#0f766e"/>
<circle cx="780.00" cy="232.98" r="3" fill="#0f766e"/>
<line x1="660" y1="135" x2="676" y2="135" stroke="#0f766e" stroke-width="2"/>
<text x="680" y="139" font-size="10" font-family="monospace">DFC penalized-exclusive, excl=3%</text>
<polyline fill="none" stroke="#9f1239" stroke-width="2" points="460.00,232.98 585.22,232.98 780.00,232.98"/>
<circle cx="460.00" cy="232.98" r="3" fill="#9f1239"/>
<circle cx="585.22" cy="232.98" r="3" fill="#9f1239"/>
<circle cx="780.00" cy="232.98" r="3" fill="#9f1239"/>
<line x1="660" y1="149" x2="676" y2="149" stroke="#9f1239" stroke-width="2"/>
<text x="680" y="153" font-size="10" font-family="monospace">DFC penalized-exclusive, excl=5%</text>
<polyline fill="none" stroke="#4a5568" stroke-width="2" points="460.00,232.98 585.22,232.98 780.00,232.98"/>
<circle cx="460.00" cy="232.98" r="3" fill="#4a5568"/>
<circle cx="585.22" cy="232.98" r="3" fill="#4a5568"/>
<circle cx="780.00" cy="232.98" r="3" fill="#4a5568"/>
<line x1="660" y1="163" x2="676" y2="163" stroke="#4a5568" stroke-width="2"/>
<text x="680" y="167" font-size="10" font-family="monospace">DFC penalized-exclusive, excl=10%</text>
<rect x="8" y="285" width="384" height="224" fill="none" stroke="#ddd"/>
<text x="200.0" y="298" text-anchor="middle" font-size="14" font-family="monospace">overall_score model A</text>
<line x1="60" y1="475" x2="380" y2="475" stroke="black"/>
<line x1="60" y1="305" x2="60" y2="475" stroke="black"/>
<line x1="60.0" y1="475" x2="60.0" y2="479" stroke="black"/>
<text x="60.0" y="493" text-anchor="middle" font-size="11" font-family="monospace">45</text>
<line x1="185.2173913043478" y1="475" x2="185.2173913043478" y2="479" stroke="black"/>
<text x="185.2173913043478" y="493" text-anchor="middle" font-size="11" font-family="monospace">90</text>
<line x1="380.0" y1="475" x2="380.0" y2="479" stroke="black"/>
<text x="380.0" y="493" text-anchor="middle" font-size="11" font-family="monospace">160</text>
<line x1="60" y1="475.0" x2="380" y2="475.0" stroke="#eee"/>
<text x="52" y="479.0" text-anchor="end" font-size="10" font-family="monospace">-1.00</text>
<line x1="60" y1="432.5" x2="380" y2="432.5" stroke="#eee"/>
<text x="52" y="436.5" text-anchor="end" font-size="10" font-family="monospace">20.00</text>
<line x1="60" y1="390.0" x2="380" y2="390.0" stroke="#eee"/>
<text x="52" y="394.0" text-anchor="end" font-size="10" font-family="monospace">41.00</text>
<line x1="60" y1="347.5" x2="380" y2="347.5" stroke="#eee"/>
<text x="52" y="351.5" text-anchor="end" font-size="10" font-family="monospace">62.00</text>
<line x1="60" y1="305.0" x2="380" y2="305.0" stroke="#eee"/>
<text x="52" y="309.0" text-anchor="end" font-size="10" font-family="monospace">83.00</text>
<text x="200.0" y="512" text-anchor="middle" font-size="11" font-family="monospace">TopK</text>
<polyline fill="none" stroke="#1b6ca8" stroke-width="2" points="60.00,471.44 185.22,471.96 380.00,472.02"/>
<circle cx="60.00" cy="471.44" r="3" fill="#1b6ca8"/>
<circle cx="185.22" cy="471.96" r="3" fill="#1b6ca8"/>
<circle cx="380.00" cy="472.02" r="3" fill="#1b6ca8"/>
<line x1="260" y1="305" x2="276" y2="305" stroke="#1b6ca8" stroke-width="2"/>
<text x="280" y="309" font-size="10" font-family="monospace">CrossCoder + L1, excl=0%</text>
<polyline fill="none" stroke="#c94c4c" stroke-width="2" points="60.00,470.75 185.22,471.36 380.00,472.55"/>
<circle cx="60.00" cy="470.75" r="3" fill="#c94c4c"/>
<circle cx="185.22" cy="471.36" r="3" fill="#c94c4c"/>
<circle cx="380.00" cy="472.55" r="3" fill="#c94c4c"/>
<line x1="260" y1="319" x2="276" y2="319" stroke="#c94c4c" stroke-width="2"/>
<text x="280" y="323" font-size="10" font-family="monospace">CrossCoder no-L1, excl=0%</text>
<polyline fill="none" stroke="#2f855a" stroke-width="2" points="60.00,472.02 185.22,472.77 380.00,471.60"/>
<circle cx="60.00" cy="472.02" r="3" fill="#2f855a"/>
<circle cx="185.22" cy="472.77" r="3" fill="#2f855a"/>
<circle cx="380.00" cy="471.60" r="3" fill="#2f855a"/>
<line x1="260" y1="333" x2="276" y2="333" stroke="#2f855a" stroke-width="2"/>
<text x="280" y="337" font-size="10" font-family="monospace">DFC free-exclusive, excl=3%</text>
<polyline fill="none" stroke="#b7791f" stroke-width="2" points="60.00,471.54 185.22,471.11 380.00,471.90"/>
<circle cx="60.00" cy="471.54" r="3" fill="#b7791f"/>
<circle cx="185.22" cy="471.11" r="3" fill="#b7791f"/>
<circle cx="380.00" cy="471.90" r="3" fill="#b7791f"/>
<line x1="260" y1="347" x2="276" y2="347" stroke="#b7791f" stroke-width="2"/>
<text x="280" y="351" font-size="10" font-family="monospace">DFC free-exclusive, excl=5%</text>
<polyline fill="none" stroke="#6b46c1" stroke-width="2" points="60.00,472.43 185.22,471.84 380.00,469.96"/>
<circle cx="60.00" cy="472.43" r="3" fill="#6b46c1"/>
<circle cx="185.22" cy="471.84" r="3" fill="#6b46c1"/>
<circle cx="380.00" cy="469.96" r="3" fill="#6b46c1"/>
<line x1="260" y1="361" x2="276" y2="361" stroke="#6b46c1" stroke-width="2"/>
<text x="280" y="365" font-size="10" font-family="monospace">DFC free-exclusive, excl=10%</text>
<polyline fill="none" stroke="#0f766e" stroke-width="2" points="60.00,472.33 185.22,472.33 380.00,471.96"/>
<circle cx="60.00" cy="472.33" r="3" fill="#0f766e"/>
<circle cx="185.22" cy="472.33" r="3" fill="#0f766e"/>
<circle cx="380.00" cy="471.96" r="3" fill="#0f766e"/>
<line x1="260" y1="375" x2="276" y2="375" stroke="#0f766e" stroke-width="2"/>
<text x="280" y="379" font-size="10" font-family="monospace">DFC penalized-exclusive, excl=3%</text>
<polyline fill="none" stroke="#9f1239" stroke-width="2" points="60.00,472.27 185.22,471.86 380.00,473.42"/>
<circle cx="60.00" cy="472.27" r="3" fill="#9f1239"/>
<circle cx="185.22" cy="471.86" r="3" fill="#9f1239"/>
<circle cx="380.00" cy="473.42" r="3" fill="#9f1239"/>
<line x1="260" y1="389" x2="276" y2="389" stroke="#9f1239" stroke-width="2"/>
<text x="280" y="393" font-size="10" font-family="monospace">DFC penalized-exclusive, excl=5%</text>
<polyline fill="none" stroke="#4a5568" stroke-width="2" points="60.00,471.56 185.22,471.76 380.00,472.33"/>
<circle cx="60.00" cy="471.56" r="3" fill="#4a5568"/>
<circle cx="185.22" cy="471.76" r="3" fill="#4a5568"/>
<circle cx="380.00" cy="472.33" r="3" fill="#4a5568"/>
<line x1="260" y1="403" x2="276" y2="403" stroke="#4a5568" stroke-width="2"/>
<text x="280" y="407" font-size="10" font-family="monospace">DFC penalized-exclusive, excl=10%</text>
<rect x="408" y="285" width="384" height="224" fill="none" stroke="#ddd"/>
<text x="600.0" y="298" text-anchor="middle" font-size="14" font-family="monospace">overall_score model B</text>
<line x1="460" y1="475" x2="780" y2="475" stroke="black"/>
<line x1="460" y1="305" x2="460" y2="475" stroke="black"/>
<line x1="460.0" y1="475" x2="460.0" y2="479" stroke="black"/>
<text x="460.0" y="493" text-anchor="middle" font-size="11" font-family="monospace">45</text>
<line x1="585.2173913043479" y1="475" x2="585.2173913043479" y2="479" stroke="black"/>
<text x="585.2173913043479" y="493" text-anchor="middle" font-size="11" font-family="monospace">90</text>
<line x1="780.0" y1="475" x2="780.0" y2="479" stroke="black"/>
<text x="780.0" y="493" text-anchor="middle" font-size="11" font-family="monospace">160</text>
<line x1="460" y1="475.0" x2="780" y2="475.0" stroke="#eee"/>
<text x="452" y="479.0" text-anchor="end" font-size="10" font-family="monospace">-1.00</text>
<line x1="460" y1="432.5" x2="780" y2="432.5" stroke="#eee"/>
<text x="452" y="436.5" text-anchor="end" font-size="10" font-family="monospace">20.00</text>
<line x1="460" y1="390.0" x2="780" y2="390.0" stroke="#eee"/>
<text x="452" y="394.0" text-anchor="end" font-size="10" font-family="monospace">41.00</text>
<line x1="460" y1="347.5" x2="780" y2="347.5" stroke="#eee"/>
<text x="452" y="351.5" text-anchor="end" font-size="10" font-family="monospace">62.00</text>
<line x1="460" y1="305.0" x2="780" y2="305.0" stroke="#eee"/>
<text x="452" y="309.0" text-anchor="end" font-size="10" font-family="monospace">83.00</text>
<text x="600.0" y="512" text-anchor="middle" font-size="11" font-family="monospace">TopK</text>
<polyline fill="none" stroke="#1b6ca8" stroke-width="2" points="460.00,474.51 585.22,474.88 780.00,474.84"/>
<circle cx="460.00" cy="474.51" r="3" fill="#1b6ca8"/>
<circle cx="585.22" cy="474.88" r="3" fill="#1b6ca8"/>
<circle cx="780.00" cy="474.84" r="3" fill="#1b6ca8"/>
<line x1="660" y1="305" x2="676" y2="305" stroke="#1b6ca8" stroke-width="2"/>
<text x="680" y="309" font-size="10" font-family="monospace">CrossCoder + L1, excl=0%</text>
<polyline fill="none" stroke="#c94c4c" stroke-width="2" points="460.00,474.31 585.22,475.00 780.00,474.68"/>
<circle cx="460.00" cy="474.31" r="3" fill="#c94c4c"/>
<circle cx="585.22" cy="475.00" r="3" fill="#c94c4c"/>
<circle cx="780.00" cy="474.68" r="3" fill="#c94c4c"/>
<line x1="660" y1="319" x2="676" y2="319" stroke="#c94c4c" stroke-width="2"/>
<text x="680" y="323" font-size="10" font-family="monospace">CrossCoder no-L1, excl=0%</text>
<polyline fill="none" stroke="#2f855a" stroke-width="2" points="460.00,474.76 585.22,474.64 780.00,474.76"/>
<circle cx="460.00" cy="474.76" r="3" fill="#2f855a"/>
<circle cx="585.22" cy="474.64" r="3" fill="#2f855a"/>
<circle cx="780.00" cy="474.76" r="3" fill="#2f855a"/>
<line x1="660" y1="333" x2="676" y2="333" stroke="#2f855a" stroke-width="2"/>
<text x="680" y="337" font-size="10" font-family="monospace">DFC free-exclusive, excl=3%</text>
<polyline fill="none" stroke="#b7791f" stroke-width="2" points="460.00,474.92 585.22,474.88 780.00,474.84"/>
<circle cx="460.00" cy="474.92" r="3" fill="#b7791f"/>
<circle cx="585.22" cy="474.88" r="3" fill="#b7791f"/>
<circle cx="780.00" cy="474.84" r="3" fill="#b7791f"/>
<line x1="660" y1="347" x2="676" y2="347" stroke="#b7791f" stroke-width="2"/>
<text x="680" y="351" font-size="10" font-family="monospace">DFC free-exclusive, excl=5%</text>
<polyline fill="none" stroke="#6b46c1" stroke-width="2" points="460.00,474.76 585.22,474.64 780.00,475.00"/>
<circle cx="460.00" cy="474.76" r="3" fill="#6b46c1"/>
<circle cx="585.22" cy="474.64" r="3" fill="#6b46c1"/>
<circle cx="780.00" cy="475.00" r="3" fill="#6b46c1"/>
<line x1="660" y1="361" x2="676" y2="361" stroke="#6b46c1" stroke-width="2"/>
<text x="680" y="365" font-size="10" font-family="monospace">DFC free-exclusive, excl=10%</text>
<polyline fill="none" stroke="#0f766e" stroke-width="2" points="460.00,474.96 585.22,474.76 780.00,474.80"/>
<circle cx="460.00" cy="474.96" r="3" fill="#0f766e"/>
<circle cx="585.22" cy="474.76" r="3" fill="#0f766e"/>
<circle cx="780.00" cy="474.80" r="3" fill="#0f766e"/>
<line x1="660" y1="375" x2="676" y2="375" stroke="#0f766e" stroke-width="2"/>
<text x="680" y="379" font-size="10" font-family="monospace">DFC penalized-exclusive, excl=3%</text>
<polyline fill="none" stroke="#9f1239" stroke-width="2" points="460.00,474.88 585.22,474.47 780.00,474.92"/>
<circle cx="460.00" cy="474.88" r="3" fill="#9f1239"/>
<circle cx="585.22" cy="474.47" r="3" fill="#9f1239"/>
<circle cx="780.00" cy="474.92" r="3" fill="#9f1239"/>
<line x1="660" y1="389" x2="676" y2="389" stroke="#9f1239" stroke-width="2"/>
<text x="680" y="393" font-size="10" font-family="monospace">DFC penalized-exclusive, excl=5%</text>
<polyline fill="none" stroke="#4a5568" stroke-width="2" points="460.00,474.19 585.22,474.92 780.00,474.68"/>
<circle cx="460.00" cy="474.19" r="3" fill="#4a5568"/>
<circle cx="585.22" cy="474.92" r="3" fill="#4a5568"/>
<circle cx="780.00" cy="474.68" r="3" fill="#4a5568"/>
<line x1="660" y1="403" x2="676" y2="403" stroke="#4a5568" stroke-width="2"/>
<text x="680" y="407" font-size="10" font-family="monospace">DFC penalized-exclusive, excl=10%</text>
<rect x="8" y="525" width="384" height="224" fill="none" stroke="#ddd"/>
<text x="200.0" y="538" text-anchor="middle" font-size="14" font-family="monospace">tool_correctness model A</text>
<line x1="60" y1="715" x2="380" y2="715" stroke="black"/>
<line x1="60" y1="545" x2="60" y2="715" stroke="black"/>
<line x1="60.0" y1="715" x2="60.0" y2="719" stroke="black"/>
<text x="60.0" y="733" text-anchor="middle" font-size="11" font-family="monospace">45</text>
<line x1="185.2173913043478" y1="715" x2="185.2173913043478" y2="719" stroke="black"/>
<text x="185.2173913043478" y="733" text-anchor="middle" font-size="11" font-family="monospace">90</text>
<line x1="380.0" y1="715" x2="380.0" y2="719" stroke="black"/>
<text x="380.0" y="733" text-anchor="middle" font-size="11" font-family="monospace">160</text>
<line x1="60" y1="715.0" x2="380" y2="715.0" stroke="#eee"/>
<text x="52" y="719.0" text-anchor="end" font-size="10" font-family="monospace">-1.00</text>
<line x1="60" y1="672.5" x2="380" y2="672.5" stroke="#eee"/>
<text x="52" y="676.5" text-anchor="end" font-size="10" font-family="monospace">20.00</text>
<line x1="60" y1="630.0" x2="380" y2="630.0" stroke="#eee"/>
<text x="52" y="634.0" text-anchor="end" font-size="10" font-family="monospace">41.00</text>
<line x1="60" y1="587.5" x2="380" y2="587.5" stroke="#eee"/>
<text x="52" y="591.5" text-anchor="end" font-size="10" font-family="monospace">62.00</text>
<line x1="60" y1="545.0" x2="380" y2="545.0" stroke="#eee"/>
<text x="52" y="549.0" text-anchor="end" font-size="10" font-family="monospace">83.00</text>
<text x="200.0" y="752" text-anchor="middle" font-size="11" font-family="monospace">TopK</text>
<polyline fill="none" stroke="#1b6ca8" stroke-width="2" points="60.00,593.57 185.22,611.79 380.00,613.81"/>
<circle cx="60.00" cy="593.57" r="3" fill="#1b6ca8"/>
<circle cx="185.22" cy="611.79" r="3" fill="#1b6ca8"/>
<circle cx="380.00" cy="613.81" r="3" fill="#1b6ca8"/>
<line x1="260" y1="545" x2="276" y2="545" stroke="#1b6ca8" stroke-width="2"/>
<text x="280" y="549" font-size="10" font-family="monospace">CrossCoder + L1, excl=0%</text>
<polyline fill="none" stroke="#c94c4c" stroke-width="2" points="60.00,571.31 185.22,591.55 380.00,632.02"/>
<circle cx="60.00" cy="571.31" r="3" fill="#c94c4c"/>
<circle cx="185.22" cy="591.55" r="3" fill="#c94c4c"/>
<circle cx="380.00" cy="632.02" r="3" fill="#c94c4c"/>
<line x1="260" y1="559" x2="276" y2="559" stroke="#c94c4c" stroke-width="2"/>
<text x="280" y="563" font-size="10" font-family="monospace">CrossCoder no-L1, excl=0%</text>
<polyline fill="none" stroke="#2f855a" stroke-width="2" points="60.00,613.81 185.22,638.10 380.00,599.64"/>
<circle cx="60.00" cy="613.81" r="3" fill="#2f855a"/>
<circle cx="185.22" cy="638.10" r="3" fill="#2f855a"/>
<circle cx="380.00" cy="599.64" r="3" fill="#2f855a"/>
<line x1="260" y1="573" x2="276" y2="573" stroke="#2f855a" stroke-width="2"/>
<text x="280" y="577" font-size="10" font-family="monospace">DFC free-exclusive, excl=3%</text>
<polyline fill="none" stroke="#b7791f" stroke-width="2" points="60.00,597.62 185.22,583.45 380.00,609.76"/>
<circle cx="60.00" cy="597.62" r="3" fill="#b7791f"/>
<circle cx="185.22" cy="583.45" r="3" fill="#b7791f"/>
<circle cx="380.00" cy="609.76" r="3" fill="#b7791f"/>
<line x1="260" y1="587" x2="276" y2="587" stroke="#b7791f" stroke-width="2"/>
<text x="280" y="591" font-size="10" font-family="monospace">DFC free-exclusive, excl=5%</text>
<polyline fill="none" stroke="#6b46c1" stroke-width="2" points="60.00,625.95 185.22,607.74 380.00,545.00"/>
<circle cx="60.00" cy="625.95" r="3" fill="#6b46c1"/>
<circle cx="185.22" cy="607.74" r="3" fill="#6b46c1"/>
<circle cx="380.00" cy="545.00" r="3" fill="#6b46c1"/>
<line x1="260" y1="601" x2="276" y2="601" stroke="#6b46c1" stroke-width="2"/>
<text x="280" y="605" font-size="10" font-family="monospace">DFC free-exclusive, excl=10%</text>
<polyline fill="none" stroke="#0f766e" stroke-width="2" points="60.00,623.93 185.22,623.93 380.00,611.79"/>
<circle cx="60.00" cy="623.93" r="3" fill="#0f766e"/>
<circle cx="185.22" cy="623.93" r="3" fill="#0f766e"/>
<circle cx="380.00" cy="611.79" r="3" fill="#0f766e"/>
<line x1="260" y1="615" x2="276" y2="615" stroke="#0f766e" stroke-width="2"/>
<text x="280" y="619" font-size="10" font-family="monospace">DFC penalized-exclusive, excl=3%</text>
<polyline fill="none" stroke="#9f1239" stroke-width="2" points="60.00,621.90 185.22,607.74 380.00,660.36"/>
<circle cx="60.00" cy="621.90" r="3" fill="#9f1239"/>
<circle cx="185.22" cy="607.74" r="3" fill="#9f1239"/>
<circle cx="380.00" cy="660.36" r="3" fill="#9f1239"/>
<line x1="260" y1="629" x2="276" y2="629" stroke="#9f1239" stroke-width="2"/>
<text x="280" y="633" font-size="10" font-family="monospace">DFC penalized-exclusive, excl=5%</text>
<polyline fill="none" stroke="#4a5568" stroke-width="2" points="60.00,597.62 185.22,605.71 380.00,623.93"/>
<circle cx="60.00" cy="597.62" r="3" fill="#4a5568"/>
<circle cx="185.22" cy="605.71" r="3" fill="#4a5568"/>
<circle cx="380.00" cy="623.93" r="3" fill="#4a5568"/>
<line x1="260" y1="643" x2="276" y2="643" stroke="#4a5568" stroke-width="2"/>
<text x="280" y="647" font-size="10" font-family="monospace">DFC penalized-exclusive, excl=10%</text>
<rect x="408" y="525" width="384" height="224" fill="none" stroke="#ddd"/>
<text x="600.0" y="538" text-anchor="middle" font-size="14" font-family="monospace">tool_correctness model B</text>
<line x1="460" y1="715" x2="780" y2="715" stroke="black"/>
<line x1="460" y1="545" x2="460" y2="715" stroke="black"/>
<line x1="460.0" y1="715" x2="460.0" y2="719" stroke="black"/>
<text x="460.0" y="733" text-anchor="middle" font-size="11" font-family="monospace">45</text>
<line x1="585.2173913043479" y1="715" x2="585.2173913043479" y2="719" stroke="black"/>
<text x="585.2173913043479" y="733" text-anchor="middle" font-size="11" font-family="monospace">90</text>
<line x1="780.0" y1="715" x2="780.0" y2="719" stroke="black"/>
<text x="780.0" y="733" text-anchor="middle" font-size="11" font-family="monospace">160</text>
<line x1="460" y1="715.0" x2="780" y2="715.0" stroke="#eee"/>
<text x="452" y="719.0" text-anchor="end" font-size="10" font-family="monospace">-1.00</text>
<line x1="460" y1="672.5" x2="780" y2="672.5" stroke="#eee"/>
<text x="452" y="676.5" text-anchor="end" font-size="10" font-family="monospace">20.00</text>
<line x1="460" y1="630.0" x2="780" y2="630.0" stroke="#eee"/>
<text x="452" y="634.0" text-anchor="end" font-size="10" font-family="monospace">41.00</text>
<line x1="460" y1="587.5" x2="780" y2="587.5" stroke="#eee"/>
<text x="452" y="591.5" text-anchor="end" font-size="10" font-family="monospace">62.00</text>
<line x1="460" y1="545.0" x2="780" y2="545.0" stroke="#eee"/>
<text x="452" y="549.0" text-anchor="end" font-size="10" font-family="monospace">83.00</text>
<text x="600.0" y="752" text-anchor="middle" font-size="11" font-family="monospace">TopK</text>
<polyline fill="none" stroke="#1b6ca8" stroke-width="2" points="460.00,688.69 585.22,706.90 780.00,704.88"/>
<circle cx="460.00" cy="688.69" r="3" fill="#1b6ca8"/>
<circle cx="585.22" cy="706.90" r="3" fill="#1b6ca8"/>
<circle cx="780.00" cy="704.88" r="3" fill="#1b6ca8"/>
<line x1="660" y1="545" x2="676" y2="545" stroke="#1b6ca8" stroke-width="2"/>
<text x="680" y="549" font-size="10" font-family="monospace">CrossCoder + L1, excl=0%</text>
<polyline fill="none" stroke="#c94c4c" stroke-width="2" points="460.00,678.57 585.22,712.98 780.00,696.79"/>
<circle cx="460.00" cy="678.57" r="3" fill="#c94c4c"/>
<circle cx="585.22" cy="712.98" r="3" fill="#c94c4c"/>
<circle cx="780.00" cy="696.79" r="3" fill="#c94c4c"/>
<line x1="660" y1="559" x2="676" y2="559" stroke="#c94c4c" stroke-width="2"/>
<text x="680" y="563" font-size="10" font-family="monospace">CrossCoder no-L1, excl=0%</text>
<polyline fill="none" stroke="#2f855a" stroke-width="2" points="460.00,700.83 585.22,694.76 780.00,700.83"/>
<circle cx="460.00" cy="700.83" r="3" fill="#2f855a"/>
<circle cx="585.22" cy="694.76" r="3" fill="#2f855a"/>
<circle cx="780.00" cy="700.83" r="3" fill="#2f855a"/>
<line x1="660" y1="573" x2="676" y2="573" stroke="#2f855a" stroke-width="2"/>
<text x="680" y="577" font-size="10" font-family="monospace">DFC free-exclusive, excl=3%</text>
<polyline fill="none" stroke="#b7791f" stroke-width="2" points="460.00,708.93 585.22,706.90 780.00,704.88"/>
<circle cx="460.00" cy="708.93" r="3" fill="#b7791f"/>
<circle cx="585.22" cy="706.90" r="3" fill="#b7791f"/>
<circle cx="780.00" cy="704.88" r="3" fill="#b7791f"/>
<line x1="660" y1="587" x2="676" y2="587" stroke="#b7791f" stroke-width="2"/>
<text x="680" y="591" font-size="10" font-family="monospace">DFC free-exclusive, excl=5%</text>
<polyline fill="none" stroke="#6b46c1" stroke-width="2" points="460.00,700.83 585.22,694.76 780.00,712.98"/>
<circle cx="460.00" cy="700.83" r="3" fill="#6b46c1"/>
<circle cx="585.22" cy="694.76" r="3" fill="#6b46c1"/>
<circle cx="780.00" cy="712.98" r="3" fill="#6b46c1"/>
<line x1="660" y1="601" x2="676" y2="601" stroke="#6b46c1" stroke-width="2"/>
<text x="680" y="605" font-size="10" font-family="monospace">DFC free-exclusive, excl=10%</text>
<polyline fill="none" stroke="#0f766e" stroke-width="2" points="460.00,710.95 585.22,700.83 780.00,702.86"/>
<circle cx="460.00" cy="710.95" r="3" fill="#0f766e"/>
<circle cx="585.22" cy="700.83" r="3" fill="#0f766e"/>
<circle cx="780.00" cy="702.86" r="3" fill="#0f766e"/>
<line x1="660" y1="615" x2="676" y2="615" stroke="#0f766e" stroke-width="2"/>
<text x="680" y="619" font-size="10" font-family="monospace">DFC penalized-exclusive, excl=3%</text>
<polyline fill="none" stroke="#9f1239" stroke-width="2" points="460.00,706.90 585.22,686.67 780.00,708.93"/>
<circle cx="460.00" cy="706.90" r="3" fill="#9f1239"/>
<circle cx="585.22" cy="686.67" r="3" fill="#9f1239"/>
<circle cx="780.00" cy="708.93" r="3" fill="#9f1239"/>
<line x1="660" y1="629" x2="676" y2="629" stroke="#9f1239" stroke-width="2"/>
<text x="680" y="633" font-size="10" font-family="monospace">DFC penalized-exclusive, excl=5%</text>
<polyline fill="none" stroke="#4a5568" stroke-width="2" points="460.00,672.50 585.22,708.93 780.00,696.79"/>
<circle cx="460.00" cy="672.50" r="3" fill="#4a5568"/>
<circle cx="585.22" cy="708.93" r="3" fill="#4a5568"/>
<circle cx="780.00" cy="696.79" r="3" fill="#4a5568"/>
<line x1="660" y1="643" x2="676" y2="643" stroke="#4a5568" stroke-width="2"/>
<text x="680" y="647" font-size="10" font-family="monospace">DFC penalized-exclusive, excl=10%</text>
</svg>
