<svg xmlns="http://www.w3.org/2000/svg" width="800" height="770" viewBox="0 0 800 770">
<rect width="100%" height="100%" fill="white"/>
<text x="400.0" y="24" text-anchor="middle" font-size="20" font-family="monospace">Post-Reconstruction Metrics vs TopK (dict_size=16384)</text>
<rect x="8" y="45" width="384" height="224" fill="none" stroke="#ddd"/>
<text x="200.0" y="58" text-anchor="middle" font-size="14" font-family="monospace">format_accuracy model A</text>
<line x1="60" y1="235" x2="380" y2="235" stroke="black"/>
<line x1="60" y1="65" x2="60" y2="235" stroke="black"/>
<line x1="60.0" y1="235" x2="60.0" y2="239" stroke="black"/>
<text x="60.0" y="253" text-anchor="middle" font-size="11" font-family="monospace">45</text>
<line x1="185.2173913043478" y1="235" x2="185.2173913043478" y2="239" stroke="black"/>
<text x="185.2173913043478" y="253" text-anchor="middle" font-size="11" font-family="monospace">90</text>
<line x1="380.0" y1="235" x2="380.0" y2="239" stroke="black"/>
<text x="380.0" y="253" text-anchor="middle" font-size="11" font-family="monospace">160</text>
<line x1="60" y1="235.0" x2="380" y2="235.0" stroke="#eee"/>
<text x="52" y="239.0" text-anchor="end" font-size="10" font-family="monospace">-0.98</text>
<line x1="60" y1="192.5" x2="380" y2="192.5" stroke="#eee"/>
<text x="52" y="196.5" text-anchor="end" font-size="10" font-family="monospace">16.02</text>
<line x1="60" y1="150.0" x2="380" y2="150.0" stroke="#eee"/>
<text x="52" y="154.0" text-anchor="end" font-size="10" font-family="monospace">33.01</text>
<line x1="60" y1="107.5" x2="380" y2="107.5" stroke="#eee"/>
<text x="52" y="111.5" text-anchor="end" font-size="10" font-family="monospace">50.01</text>
<line x1="60" y1="65.0" x2="380" y2="65.0" stroke="#eee"/>
<text x="52" y="69.0" text-anchor="end" font-size="10" font-family="monospace">67.00</text>
<text x="200.0" y="272" text-anchor="middle" font-size="11" font-family="monospace">TopK</text>
<polyline fill="none" stroke="#1b6ca8" stroke-width="2" points="60.00,105.01 185.22,120.02 380.00,67.50"/>
<circle cx="60.00" cy="105.01" r="3" fill="#1b6ca8"/>
<circle cx="185.22" cy="120.02" r="3" fill="#1b6ca8"/>
<circle cx="380.00" cy="67.50" r="3" fill="#1b6ca8"/>
<line x1="260" y1="65" x2="276" y2="65" stroke="#1b6ca8" stroke-width="2"/>
<text x="280" y="69" font-size="10" font-family="monospace">CrossCoder + L1, excl=0%</text>
<polyline fill="none" stroke="#c94c4c" stroke-width="2" points="60.00,100.01 185.22,145.02 380.00,127.52"/>
<circle cx="60.00" cy="100.01" r="3" fill="#c94c4c"/>
<circle cx="185.22" cy="145.02" r="3" fill="#c94c4c"/>
<circle cx="380.00" cy="127.52" r="3" fill="#c94c4c"/>
<line x1="260" y1="79" x2="276" y2="79" stroke="#c94c4c" stroke-width="2"/>
<text x="280" y="83" font-size="10" font-family="monospace">CrossCoder no-L1, excl=0%</text>
<polyline fill="none" stroke="#2f855a" stroke-width="2" points="60.00,110.01 185.22,130.02 380.00,110.01"/>
<circle cx="60.00" cy="110.01" r="3" fill="#2f855a"/>
<circle cx="185.22" cy="130.02" r="3" fill="#2f855a"/>
<circle cx="380.00" cy="110.01" r="3" fill="#2f855a"/>
<line x1="260" y1="93" x2="276" y2="93" stroke="#2f855a" stroke-width="2"/>
<text x="280" y="97" font-size="10" font-family="monospace">DFC free-exclusive, excl=3%</text>
<polyline fill="none" stroke="#b7791f" stroke-width="2" points="60.00,112.51 185.22,125.02 380.00,87.51"/>
<circle cx="60.00" cy="112.51" r="3" fill="#b7791f"/>
<circle cx="185.22" cy="125.02" r="3" fill="#b7791f"/>
<circle cx="380.00" cy="87.51" r="3" fill="#b7791f"/>
<line x1="260" y1="107" x2="276" y2="107" stroke="#b7791f" stroke-width="2"/>
<text x="280" y="111" font-size="10" font-family="monospace">DFC free-exclusive, excl=5%</text>
<polyline fill="none" stroke="#6b46c1" stroke-width="2" points="60.00,150.03 185.22,90.01 380.00,85.01"/>
<circle cx="60.00" cy="150.03" r="3" fill="#6b46c1"/>
<circle cx="185.22" cy="90.01" r="3" fill="#6b46c1"/>
<circle cx="380.00" cy="85.01" r="3" fill="#6b46c1"/>
<line x1="260" y1="121" x2="276" y2="121" stroke="#6b46c1" stroke-width="2"/>
<text x="280" y="125" font-size="10" font-family="monospace">DFC free-exclusive, excl=10%</text>
<polyline fill="none" stroke="#0f766e" stroke-width="2" points="60.00,127.52 185.22,127.52 380.00,102.51"/>
<circle cx="60.00" cy="127.52" r="3" fill="#0f766e"/>
<circle cx="185.22" cy="127.52" r="3" fill="#0f766e"/>
<circle cx="380.00" cy="102.51" r="3" fill="#0f766e"/>
<line x1="260" y1="135" x2="276" y2="135" stroke="#0f766e" stroke-width="2"/>
<text x="280" y="139" font-size="10" font-family="monospace">DFC penalized-exclusive, excl=3%</text>
<polyline fill="none" stroke="#9f1239" stroke-width="2" points="60.00,120.02 185.22,110.01 380.00,110.01"/>
<circle cx="60.00" cy="120.02" r="3" fill="#9f1239"/>
<circle cx="185.22" cy="110.01" r="3" fill="#9f1239"/>
<circle cx="380.00" cy="110.01" r="3" fill="#9f1239"/>
<line x1="260" y1="149" x2="276" y2="149" stroke="#9f1239" stroke-width="2"/>
<text x="280" y="153" font-size="10" font-family="monospace">DFC penalized-exclusive, excl=5%</text>
<polyline fill="none" stroke="#4a5568" stroke-width="2" points="60.00,107.51 380.00,102.51"/>
<circle cx="60.00" cy="107.51" r="3" fill="#4a5568"/>
<circle cx="380.00" cy="102.51" r="3" fill="#4a5568"/>
<line x1="260" y1="163" x2="276" y2="163" stroke="#4a5568" stroke-width="2"/>
<text x="280" y="167" font-size="10" font-family="monospace">DFC penalized-exclusive, excl=10%</text>
<rect x="408" y="45" width="384" height="224" fill="none" stroke="#ddd"/>
<text x="600.0" y="58" text-anchor="middle" font-size="14" font-family="monospace">format_accuracy model B</text>
<line x1="460" y1="235" x2="780" y2="235" stroke="black"/>
<line x1="460" y1="65" x2="460" y2="235" stroke="black"/>
<line x1="460.0" y1="235" x2="460.0" y2="239" stroke="black"/>
<text x="460.0" y="253" text-anchor="middle" font-size="11" font-family="monospace">45</text>
<line x1="585.2173913043479" y1="235" x2="585.2173913043479" y2="239" stroke="black"/>
<text x="585.2173913043479" y="253" text-anchor="middle" font-size="11" font-family="monospace">90</text>
<line x1="780.0" y1="235" x2="780.0" y2="239" stroke="black"/>
<text x="780.0" y="253" text-anchor="middle" font-size="11" font-family="monospace">160</text>
<line x1="460" y1="235.0" x2="780" y2="235.0" stroke="#eee"/>
<text x="452" y="239.0" text-anchor="end" font-size="10" font-family="monospace">-0.98</text>
<line x1="460" y1="192.5" x2="780" y2="192.5" stroke="#eee"/>
<text x="452" y="196.5" text-anchor="end" font-size="10" font-family="monospace">16.02</text>
<line x1="460" y1="150.0" x2="780" y2="150.0" stroke="#eee"/>
<text x="452" y="154.0" text-anchor="end" font-size="10" font-family="monospace">33.01</text>
<line x1="460" y1="107.5" x2="780" y2="107.5" stroke="#eee"/>
<text x="452" y="111.5" text-anchor="end" font-size="10" font-family="monospace">50.01</text>
<line x1="460" y1="65.0" x2="780" y2="65.0" stroke="#eee"/>
<text x="452" y="69.0" text-anchor="end" font-size="10" font-family="monospace">67.00</text>
<text x="600.0" y="272" text-anchor="middle" font-size="11" font-family="monospace">TopK</text>
<polyline fill="none" stroke="#1b6ca8" stroke-width="2" points="460.00,232.55 585.22,232.55 780.00,232.55"/>
<circle cx="460.00" cy="232.55" r="3" fill="#1b6ca8"/>
<circle cx="585.22" cy="232.55" r="3" fill="#1b6ca8"/>
<circle cx="780.00" cy="232.55" r="3" fill="#1b6ca8"/>
<line x1="660" y1="65" x2="676" y2="65" stroke="#1b6ca8" stroke-width="2"/>
<text x="680" y="69" font-size="10" font-family="monospace">CrossCoder + L1, excl=0%</text>
<polyline fill="none" stroke="#c94c4c" stroke-width="2" points="460.00,232.55 585.22,232.55 780.00,232.55"/>
<circle cx="460.00" cy="232.55" r="3" fill="#c94c4c"/>
<circle cx="585.22" cy="232.55" r="3" fill="#c94c4c"/>
<circle cx="780.00" cy="232.55" r="3" fill="#c94c4c"/>
<line x1="660" y1="79" x2="676" y2="79" stroke="#c94c4c" stroke-width="2"/>
<text x="680" y="83" font-size="10" font-family="monospace">CrossCoder no-L1, excl=0%</text>
<polyline fill="none" stroke="#2f855a" stroke-width="2" points="460.00,232.55 585.22,232.55 780.00,232.55"/>
<circle cx="460.00" cy="232.55" r="3" fill="#2f855a"/>
<circle cx="585.22" cy="232.55" r="3" fill="#2f855a"/>
<circle cx="780.00" cy="232.55" r="3" fill="#2f855a"/>
<line x1="660" y1="93" x2="676" y2="93" stroke="#2f855a" stroke-width="2"/>
<text x="680" y="97" font-size="10" font-family="monospace">DFC free-exclusive, excl=3%</text>
<polyline fill="none" stroke="#b7791f" stroke-width="2" points="460.00,232.55 585.22,232.55 780.00,232.55"/>
<circle cx="460.00" cy="232.55" r="3" fill="#b7791f"/>
<circle cx="585.22" cy="232.55" r="3" fill="#b7791f"/>
<circle cx="780.00" cy="232.55" r="3" fill="#b7791f"/>
<line x1="660" y1="107" x2="676" y2="107" stroke="#b7791f" stroke-width="2"/>
<text x="680" y="111" font-size="10" font-family="monospace">DFC free-exclusive, excl=5%</text>
<polyline fill="none" stroke="#6b46c1" stroke-width="2" points="460.00,232.55 585.22,232.55 780.00,232.55"/>
<circle cx="460.00" cy="232.55" r="3" fill="#6b46c1"/>
<circle cx="585.22" cy="232.55" r="3" fill="#6b46c1"/>
<circle cx="780.00" cy="232.55" r="3" fill="#6b46c1"/>
<line x1="660" y1="121" x2="676" y2="121" stroke="#6b46c1" stroke-width="2"/>
<text x="680" y="125" font-size="10" font-family="monospace">DFC free-exclusive, excl=10%</text>
<polyline fill="none" stroke="#0f766e" stroke-width="2" points="460.00,232.55 585.22,232.55 780.00,232.55"/>
<circle cx="460.00" cy="232.55" r="3" fill="#0f766e"/>
<circle cx="585.22" cy="232.55" r="3" fill="#0f766e"/>
<circle cx="780.00" cy="232.55" r="3" fill="#0f766e"/>
<line x1="660" y1="135" x2="676" y2="135" stroke="#0f766e" stroke-width="2"/>
<text x="680" y="139" font-size="10" font-family="monospace">DFC penalized-exclusive, excl=3%</text>
<polyline fill="none" stroke="#9f1239" stroke-width="2" points="460.00,232.55 585.22,232.55 780.00,232.55"/>
<circle cx="460.00" cy="232.55" r="3" fill="#9f1239"/>
<circle cx="585.22" cy="232.55" r="3" fill="#9f1239"/>
<circle cx="780.00" cy="232.55" r="3" fill="#9f1239"/>
<line x1="660" y1="149" x2="676" y2="149" stroke="#9f1239" stroke-width="2"/>
<text x="680" y="153" font-size="10" font-family="monospace">DFC penalized-exclusive, excl=5%</text>
<polyline fill="none" stroke="#4a5568" stroke-width="2" points="460.00,232.55 780.00,232.55"/>
<circle cx="460.00" cy="232.55" r="3" fill="#4a5568"/>
<circle cx="780.00" cy="232.55" r="3" fill="#4a5568"/>
<line x1="660" y1="163" x2="676" y2="163" stroke="#4a5568" stroke-width="2"/>
<text x="680" y="167" font-size="10" font-family="monospace">DFC penalized-exclusive, excl=10%</text>
<rect x="8" y="285" width="384" height="224" fill="none" stroke="#ddd"/>
<text x="200.0" y="298" text-anchor="middle" font-size="14" font-family="monospace">overall_score model A</text>
<line x1="60" y1="475" x2="380" y2="475" stroke="black"/>
<line x1="60" y1="305" x2="60" y2="475" stroke="black"/>
<line x1="60.0" y1="475" x2="60.0" y2="479" stroke="black"/>
<text x="60.0" y="493" text-anchor="middle" font-size="11" font-family="monospace">45</text>
<line x1="185.2173913043478" y1="475" x2="185.2173913043478" y2="479" stroke="black"/>
<text x="185.2173913043478" y="493" text-anchor="middle" font-size="11" font-family="monospace">90</text>
<line x1="380.0" y1="475" x2="380.0" y2="479" stroke="black"/>
<text x="380.0" y="493" text-anchor="middle" font-size="11" font-family="monospace">160</text>
<line x1="60" y1="475.0" x2="380" y2="475.0" stroke="#eee"/>
<text x="52" y="479.0" text-anchor="end" font-size="10" font-family="monospace">-0.98</text>
<line x1="60" y1="432.5" x2="380" y2="432.5" stroke="#eee"/>
<text x="52" y="436.5" text-anchor="end" font-size="10" font-family="monospace">16.02</text>
<line x1="60" y1="390.0" x2="380" y2="390.0" stroke="#eee"/>
<text x="52" y="394.0" text-anchor="end" font-size="10" font-family="monospace">33.01</text>
<line x1="60" y1="347.5" x2="380" y2="347.5" stroke="#eee"/>
<text x="52" y="351.5" text-anchor="end" font-size="10" font-family="monospace">50.01</text>
<line x1="60" y1="305.0" x2="380" y2="305.0" stroke="#eee"/>
<text x="52" y="309.0" text-anchor="end" font-size="10" font-family="monospace">67.00</text>
<text x="200.0" y="512" text-anchor="middle" font-size="11" font-family="monospace">TopK</text>
<polyline fill="none" stroke="#1b6ca8" stroke-width="2" points="60.00,471.17 185.22,471.62 380.00,470.05"/>
<circle cx="60.00" cy="471.17" r="3" fill="#1b6ca8"/>
<circle cx="185.22" cy="471.62" r="3" fill="#1b6ca8"/>
<circle cx="380.00" cy="470.05" r="3" fill="#1b6ca8"/>
<line x1="260" y1="305" x2="276" y2="305" stroke="#1b6ca8" stroke-width="2"/>
<text x="280" y="309" font-size="10" font-family="monospace">CrossCoder + L1, excl=0%</text>
<polyline fill="none" stroke="#c94c4c" stroke-width="2" points="60.00,471.07 185.22,472.42 380.00,471.90"/>
<circle cx="60.00" cy="471.07" r="3" fill="#c94c4c"/>
<circle cx="185.22" cy="472.42" r="3" fill="#c94c4c"/>
<circle cx="380.00" cy="471.90" r="3" fill="#c94c4c"/>
<line x1="260" y1="319" x2="276" y2="319" stroke="#c94c4c" stroke-width="2"/>
<text x="280" y="323" font-size="10" font-family="monospace">CrossCoder no-L1, excl=0%</text>
<polyline fill="none" stroke="#2f855a" stroke-width="2" points="60.00,471.32 185.22,471.97 380.00,471.32"/>
<circle cx="60.00" cy="471.32" r="3" fill="#2f855a"/>
<circle cx="185.22" cy="471.97" r="3" fill="#2f855a"/>
<circle cx="380.00" cy="471.32" r="3" fill="#2f855a"/>
<line x1="260" y1="333" x2="276" y2="333" stroke="#2f855a" stroke-width="2"/>
<text x="280" y="337" font-size="10" font-family="monospace">DFC free-exclusive, excl=3%</text>
<polyline fill="none" stroke="#b7791f" stroke-width="2" points="60.00,471.45 185.22,471.72 380.00,470.70"/>
<circle cx="60.00" cy="471.45" r="3" fill="#b7791f"/>
<circle cx="185.22" cy="471.72" r="3" fill="#b7791f"/>
<circle cx="380.00" cy="470.70" r="3" fill="#b7791f"/>
<line x1="260" y1="347" x2="276" y2="347" stroke="#b7791f" stroke-width="2"/>
<text x="280" y="351" font-size="10" font-family="monospace">DFC free-exclusive, excl=5%</text>
<polyline fill="none" stroke="#6b46c1" stroke-width="2" points="60.00,472.57 185.22,470.82 380.00,470.67"/>
<circle cx="60.00" cy="472.57" r="3" fill="#6b46c1"/>
<circle cx="185.22" cy="470.82" r="3" fill="#6b46c1"/>
<circle cx="380.00" cy="470.67" r="3" fill="#6b46c1"/>
<line x1="260" y1="361" x2="276" y2="361" stroke="#6b46c1" stroke-width="2"/>
<text x="280" y="365" font-size="10" font-family="monospace">DFC free-exclusive, excl=10%</text>
<polyline fill="none" stroke="#0f766e" stroke-width="2" points="60.00,471.85 185.22,471.90 380.00,471.15"/>
<circle cx="60.00" cy="471.85" r="3" fill="#0f766e"/>
<circle cx="185.22" cy="471.90" r="3" fill="#0f766e"/>
<circle cx="380.00" cy="471.15" r="3" fill="#0f766e"/>
<line x1="260" y1="375" x2="276" y2="375" stroke="#0f766e" stroke-width="2"/>
<text x="280" y="379" font-size="10" font-family="monospace">DFC penalized-exclusive, excl=3%</text>
<polyline fill="none" stroke="#9f1239" stroke-width="2" points="60.00,471.62 185.22,471.32 380.00,471.32"/>
<circle cx="60.00" cy="471.62" r="3" fill="#9f1239"/>
<circle cx="185.22" cy="471.32" r="3" fill="#9f1239"/>
<circle cx="380.00" cy="471.32" r="3" fill="#9f1239"/>
<line x1="260" y1="389" x2="276" y2="389" stroke="#9f1239" stroke-width="2"/>
<text x="280" y="393" font-size="10" font-family="monospace">DFC penalized-exclusive, excl=5%</text>
<polyline fill="none" stroke="#4a5568" stroke-width="2" points="60.00,471.20 380.00,471.05"/>
<circle cx="60.00" cy="471.20" r="3" fill="#4a5568"/>
<circle cx="380.00" cy="471.05" r="3" fill="#4a5568"/>
<line x1="260" y1="403" x2="276" y2="403" stroke="#4a5568" stroke-width="2"/>
<text x="280" y="407" font-size="10" font-family="monospace">DFC penalized-exclusive, excl=10%</text>
<rect x="408" y="285" width="384" height="224" fill="none" stroke="#ddd"/>
<text x="600.0" y="298" text-anchor="middle" font-size="14" font-family="monospace">overall_score model B</text>
<line x1="460" y1="475" x2="780" y2="475" stroke="black"/>
<line x1="460" y1="305" x2="460" y2="475" stroke="black"/>
<line x1="460.0" y1="475" x2="460.0" y2="479" stroke="black"/>
<text x="460.0" y="493" text-anchor="middle" font-size="11" font-family="monospace">45</text>
<line x1="585.2173913043479" y1="475" x2="585.2173913043479" y2="479" stroke="black"/>
<text x="585.2173913043479" y="493" text-anchor="middle" font-size="11" font-family="monospace">90</text>
<line x1="780.0" y1="475" x2="780.0" y2="479" stroke="black"/>
<text x="780.0" y="493" text-anchor="middle" font-size="11" font-family="monospace">160</text>
<line x1="460" y1="475.0" x2="780" y2="475.0" stroke="#eee"/>
<text x="452" y="479.0" text-anchor="end" font-size="10" font-family="monospace">-0.98</text>
<line x1="460" y1="432.5" x2="780" y2="432.5" stroke="#eee"/>
<text x="452" y="436.5" text-anchor="end" font-size="10" font-family="monospace">16.02</text>
<line x1="460" y1="390.0" x2="780" y2="390.0" stroke="#eee"/>
<text x="452" y="394.0" text-anchor="end" font-size="10" font-family="monospace">33.01</text>
<line x1="460" y1="347.5" x2="780" y2="347.5" stroke="#eee"/>
<text x="452" y="351.5" text-anchor="end" font-size="10" font-family="monospace">50.01</text>
<line x1="460" y1="305.0" x2="780" y2="305.0" stroke="#eee"/>
<text x="452" y="309.0" text-anchor="end" font-size="10" font-family="monospace">67.00</text>
<text x="600.0" y="512" text-anchor="middle" font-size="11" font-family="monospace">TopK</text>
<polyline fill="none" stroke="#1b6ca8" stroke-width="2" points="460.00,474.45 585.22,474.90 780.00,474.85"/>
<circle cx="460.00" cy="474.45" r="3" fill="#1b6ca8"/>
<circle cx="585.22" cy="474.90" r="3" fill="#1b6ca8"/>
<circle cx="780.00" cy="474.85" r="3" fill="#1b6ca8"/>
<line x1="660" y1="305" x2="676" y2="305" stroke="#1b6ca8" stroke-width="2"/>
<text x="680" y="309" font-size="10" font-family="monospace">CrossCoder + L1, excl=0%</text>
<polyline fill="none" stroke="#c94c4c" stroke-width="2" points="460.00,474.35 585.22,474.30 780.00,474.30"/>
<circle cx="460.00" cy="474.35" r="3" fill="#c94c4c"/>
<circle cx="585.22" cy="474.30" r="3" fill="#c94c4c"/>
<circle cx="780.00" cy="474.30" r="3" fill="#c94c4c"/>
<line x1="660" y1="319" x2="676" y2="319" stroke="#c94c4c" stroke-width="2"/>
<text x="680" y="323" font-size="10" font-family="monospace">CrossCoder no-L1, excl=0%</text>
<polyline fill="none" stroke="#2f855a" stroke-width="2" points="460.00,474.75 585.22,474.60 780.00,474.90"/>
<circle cx="460.00" cy="474.75" r="3" fill="#2f855a"/>
<circle cx="585.22" cy="474.60" r="3" fill="#2f855a"/>
<circle cx="780.00" cy="474.90" r="3" fill="#2f855a"/>
<line x1="660" y1="333" x2="676" y2="333" stroke="#2f855a" stroke-width="2"/>
<text x="680" y="337" font-size="10" font-family="monospace">DFC free-exclusive, excl=3%</text>
<polyline fill="none" stroke="#b7791f" stroke-width="2" points="460.00,474.75 585.22,474.70 780.00,474.90"/>
<circle cx="460.00" cy="474.75" r="3" fill="#b7791f"/>
<circle cx="585.22" cy="474.70" r="3" fill="#b7791f"/>
<circle cx="780.00" cy="474.90" r="3" fill="#b7791f"/>
<line x1="660" y1="347" x2="676" y2="347" stroke="#b7791f" stroke-width="2"/>
<text x="680" y="351" font-size="10" font-family="monospace">DFC free-exclusive, excl=5%</text>
<polyline fill="none" stroke="#6b46c1" stroke-width="2" points="460.00,475.00 585.22,474.10 780.00,474.85"/>
<circle cx="460.00" cy="475.00" r="3" fill="#6b46c1"/>
<circle cx="585.22" cy="474.10" r="3" fill="#6b46c1"/>
<circle cx="780.00" cy="474.85" r="3" fill="#6b46c1"/>
<line x1="660" y1="361" x2="676" y2="361" stroke="#6b46c1" stroke-width="2"/>
<text x="680" y="365" font-size="10" font-family="monospace">DFC free-exclusive, excl=10%</text>
<polyline fill="none" stroke="#0f766e" stroke-width="2" points="460.00,474.75 585.22,474.70 780.00,474.65"/>
<circle cx="460.00" cy="474.75" r="3" fill="#0f766e"/>
<circle cx="585.22" cy="474.70" r="3" fill="#0f766e"/>
<circle cx="780.00" cy="474.65" r="3" fill="#0f766e"/>
<line x1="660" y1="375" x2="676" y2="375" stroke="#0f766e" stroke-width="2"/>
<text x="680" y="379" font-size="10" font-family="monospace">DFC penalized-exclusive, excl=3%</text>
<polyline fill="none" stroke="#9f1239" stroke-width="2" points="460.00,474.90 585.22,474.90 780.00,474.85"/>
<circle cx="460.00" cy="474.90" r="3" fill="#9f1239"/>
<circle cx="585.22" cy="474.90" r="3" fill="#9f1239"/>
<circle cx="780.00" cy="474.85" r="3" fill="#9f1239"/>
<line x1="660" y1="389" x2="676" y2="389" stroke="#9f1239" stroke-width="2"/>
<text x="680" y="393" font-size="10" font-family="monospace">DFC penalized-exclusive, excl=5%</text>
<polyline fill="none" stroke="#4a5568" stroke-width="2" points="460.00,474.70 780.00,474.80"/>
<circle cx="460.00" cy="474.70" r="3" fill="#4a5568"/>
<circle cx="780.00" cy="474.80" r="3" fill="#4a5568"/>
<line x1="660" y1="403" x2="676" y2="403" stroke="#4a5568" stroke-width="2"/>
<text x="680" y="407" font-size="10" font-family="monospace">DFC penalized-exclusive, excl=10%</text>
<rect x="8" y="525" width="384" height="224" fill="none" stroke="#ddd"/>
<text x="200.0" y="538" text-anchor="middle" font-size="14" font-family="monospace">tool_correctness model A</text>
<line x1="60" y1="715" x2="380" y2="715" stroke="black"/>
<line x1="60" y1="545" x2="60" y2="715" stroke="black"/>
<line x1="60.0" y1="715" x2="60.0" y2="719" stroke="black"/>
<text x="60.0" y="733" text-anchor="middle" font-size="11" font-family="monospace">45</text>
<line x1="185.2173913043478" y1="715" x2="185.2173913043478" y2="719" stroke="black"/>
<text x="185.2173913043478" y="733" text-anchor="middle" font-size="11" font-family="monospace">90</text>
<line x1="380.0" y1="715" x2="380.0" y2="719" stroke="black"/>
<text x="380.0" y="733" text-anchor="middle" font-size="11" font-family="monospace">160</text>
<line x1="60" y1="715.0" x2="380" y2="715.0" stroke="#eee"/>
<text x="52" y="719.0" text-anchor="end" font-size="10" font-family="monospace">-0.98</text>
<line x1="60" y1="672.5" x2="380" y2="672.5" stroke="#eee"/>
<text x="52" y="676.5" text-anchor="end" font-size="10" font-family="monospace">16.02</text>
<line x1="60" y1="630.0" x2="380" y2="630.0" stroke="#eee"/>
<text x="52" y="634.0" text-anchor="end" font-size="10" font-family="monospace">33.01</text>
<line x1="60" y1="587.5" x2="380" y2="587.5" stroke="#eee"/>
<text x="52" y="591.5" text-anchor="end" font-size="10" font-family="monospace">50.01</text>
<line x1="60" y1="545.0" x2="380" y2="545.0" stroke="#eee"/>
<text x="52" y="549.0" text-anchor="end" font-size="10" font-family="monospace">67.00</text>
<text x="200.0" y="752" text-anchor="middle" font-size="11" font-family="monospace">TopK</text>
<polyline fill="none" stroke="#1b6ca8" stroke-width="2" points="60.00,582.51 185.22,597.52 380.00,545.00"/>
<circle cx="60.00" cy="582.51" r="3" fill="#1b6ca8"/>
<circle cx="185.22" cy="597.52" r="3" fill="#1b6ca8"/>
<circle cx="380.00" cy="545.00" r="3" fill="#1b6ca8"/>
<line x1="260" y1="545" x2="276" y2="545" stroke="#1b6ca8" stroke-width="2"/>
<text x="280" y="549" font-size="10" font-family="monospace">CrossCoder + L1, excl=0%</text>
<polyline fill="none" stroke="#c94c4c" stroke-width="2" points="60.00,580.01 185.22,625.02 380.00,607.52"/>
<circle cx="60.00" cy="580.01" r="3" fill="#c94c4c"/>
<circle cx="185.22" cy="625.02" r="3" fill="#c94c4c"/>
<circle cx="380.00" cy="607.52" r="3" fill="#c94c4c"/>
<line x1="260" y1="559" x2="276" y2="559" stroke="#c94c4c" stroke-width="2"/>
<text x="280" y="563" font-size="10" font-family="monospace">CrossCoder no-L1, excl=0%</text>
<polyline fill="none" stroke="#2f855a" stroke-width="2" points="60.00,587.51 185.22,610.02 380.00,587.51"/>
<circle cx="60.00" cy="587.51" r="3" fill="#2f855a"/>
<circle cx="185.22" cy="610.02" r="3" fill="#2f855a"/>
<circle cx="380.00" cy="587.51" r="3" fill="#2f855a"/>
<line x1="260" y1="573" x2="276" y2="573" stroke="#2f855a" stroke-width="2"/>
<text x="280" y="577" font-size="10" font-family="monospace">DFC free-exclusive, excl=3%</text>
<polyline fill="none" stroke="#b7791f" stroke-width="2" points="60.00,592.51 185.22,600.02 380.00,567.51"/>
<circle cx="60.00" cy="592.51" r="3" fill="#b7791f"/>
<circle cx="185.22" cy="600.02" r="3" fill="#b7791f"/>
<circle cx="380.00" cy="567.51" r="3" fill="#b7791f"/>
<line x1="260" y1="587" x2="276" y2="587" stroke="#b7791f" stroke-width="2"/>
<text x="280" y="591" font-size="10" font-family="monospace">DFC free-exclusive, excl=5%</text>
<polyline fill="none" stroke="#6b46c1" stroke-width="2" points="60.00,630.03 185.22,572.51 380.00,567.51"/>
<circle cx="60.00" cy="630.03" r="3" fill="#6b46c1"/>
<circle cx="185.22" cy="572.51" r="3" fill="#6b46c1"/>
<circle cx="380.00" cy="567.51" r="3" fill="#6b46c1"/>
<line x1="260" y1="601" x2="276" y2="601" stroke="#6b46c1" stroke-width="2"/>
<text x="280" y="605" font-size="10" font-family="monospace">DFC free-exclusive, excl=10%</text>
<polyline fill="none" stroke="#0f766e" stroke-width="2" points="60.00,605.02 185.22,607.52 380.00,582.51"/>
<circle cx="60.00" cy="605.02" r="3" fill="#0f766e"/>
<circle cx="185.22" cy="607.52" r="3" fill="#0f766e"/>
<circle cx="380.00" cy="582.51" r="3" fill="#0f766e"/>
<line x1="260" y1="615" x2="276" y2="615" stroke="#0f766e" stroke-width="2"/>
<text x="280" y="619" font-size="10" font-family="monospace">DFC penalized-exclusive, excl=3%</text>
<polyline fill="none" stroke="#9f1239" stroke-width="2" points="60.00,597.52 185.22,587.51 380.00,587.51"/>
<circle cx="60.00" cy="597.52" r="3" fill="#9f1239"/>
<circle cx="185.22" cy="587.51" r="3" fill="#9f1239"/>
<circle cx="380.00" cy="587.51" r="3" fill="#9f1239"/>
<line x1="260" y1="629" x2="276" y2="629" stroke="#9f1239" stroke-width="2"/>
<text x="280" y="633" font-size="10" font-family="monospace">DFC penalized-exclusive, excl=5%</text>
<polyline fill="none" stroke="#4a5568" stroke-width="2" points="60.00,582.51 380.00,577.51"/>
<circle cx="60.00" cy="582.51" r="3" fill="#4a5568"/>
<circle cx="380.00" cy="577.51" r="3" fill="#4a5568"/>
<line x1="260" y1="643" x2="276" y2="643" stroke="#4a5568" stroke-width="2"/>
<text x="280" y="647" font-size="10" font-family="monospace">DFC penalized-exclusive, excl=10%</text>
<rect x="408" y="525" width="384" height="224" fill="none" stroke="#ddd"/>
<text x="600.0" y="538" text-anchor="middle" font-size="14" font-family="monospace">tool_correctness model B</text>
<line x1="460" y1="715" x2="780" y2="715" stroke="black"/>
<line x1="460" y1="545" x2="460" y2="715" stroke="black"/>
<line x1="460.0" y1="715" x2="460.0" y2="719" stroke="black"/>
<text x="460.0" y="733" text-anchor="middle" font-size="11" font-family="monospace">45</text>
<line x1="585.2173913043479" y1="715" x2="585.2173913043479" y2="719" stroke="black"/>
<text x="585.2173913043479" y="733" text-anchor="middle" font-size="11" font-family="monospace">90</text>
<line x1="780.0" y1="715" x2="780.0" y2="719" stroke="black"/>
<text x="780.0" y="733" text-anchor="middle" font-size="11" font-family="monospace">160</text>
<line x1="460" y1="715.0" x2="780" y2="715.0" stroke="#eee"/>
<text x="452" y="719.0" text-anchor="end" font-size="10" font-family="monospace">-0.98</text>
<line x1="460" y1="672.5" x2="780" y2="672.5" stroke="#eee"/>
<text x="452" y="676.5" text-anchor="end" font-size="10" font-family="monospace">16.02</text>
<line x1="460" y1="630.0" x2="780" y2="630.0" stroke="#eee"/>
<text x="452" y="634.0" text-anchor="end" font-size="10" font-family="monospace">33.01</text>
<line x1="460" y1="587.5" x2="780" y2="587.5" stroke="#eee"/>
<text x="452" y="591.5" text-anchor="end" font-size="10" font-family="monospace">50.01</text>
<line x1="460" y1="545.0" x2="780" y2="545.0" stroke="#eee"/>
<text x="452" y="549.0" text-anchor="end" font-size="10" font-family="monospace">67.00</text>
<text x="600.0" y="752" text-anchor="middle" font-size="11" font-family="monospace">TopK</text>
<polyline fill="none" stroke="#1b6ca8" stroke-width="2" points="460.00,682.54 585.22,705.05 780.00,702.55"/>
<circle cx="460.00" cy="682.54" r="3" fill="#1b6ca8"/>
<circle cx="585.22" cy="705.05" r="3" fill="#1b6ca8"/>
<circle cx="780.00" cy="702.55" r="3" fill="#1b6ca8"/>
<line x1="660" y1="545" x2="676" y2="545" stroke="#1b6ca8" stroke-width="2"/>
<text x="680" y="549" font-size="10" font-family="monospace">CrossCoder + L1, excl=0%</text>
<polyline fill="none" stroke="#c94c4c" stroke-width="2" points="460.00,677.54 585.22,675.04 780.00,675.04"/>
<circle cx="460.00" cy="677.54" r="3" fill="#c94c4c"/>
<circle cx="585.22" cy="675.04" r="3" fill="#c94c4c"/>
<circle cx="780.00" cy="675.04" r="3" fill="#c94c4c"/>
<line x1="660" y1="559" x2="676" y2="559" stroke="#c94c4c" stroke-width="2"/>
<text x="680" y="563" font-size="10" font-family="monospace">CrossCoder no-L1, excl=0%</text>
<polyline fill="none" stroke="#2f855a" stroke-width="2" points="460.00,697.54 585.22,690.04 780.00,705.05"/>
<circle cx="460.00" cy="697.54" r="3" fill="#2f855a"/>
<circle cx="585.22" cy="690.04" r="3" fill="#2f855a"/>
<circle cx="780.00" cy="705.05" r="3" fill="#2f855a"/>
<line x1="660" y1="573" x2="676" y2="573" stroke="#2f855a" stroke-width="2"/>
<text x="680" y="577" font-size="10" font-family="monospace">DFC free-exclusive, excl=3%</text>
<polyline fill="none" stroke="#b7791f" stroke-width="2" points="460.00,697.54 585.22,695.04 780.00,705.05"/>
<circle cx="460.00" cy="697.54" r="3" fill="#b7791f"/>
<circle cx="585.22" cy="695.04" r="3" fill="#b7791f"/>
<circle cx="780.00" cy="705.05" r="3" fill="#b7791f"/>
<line x1="660" y1="587" x2="676" y2="587" stroke="#b7791f" stroke-width="2"/>
<text x="680" y="591" font-size="10" font-family="monospace">DFC free-exclusive, excl=5%</text>
<polyline fill="none" stroke="#6b46c1" stroke-width="2" points="460.00,710.05 585.22,665.04 780.00,702.55"/>
<circle cx="460.00" cy="710.05" r="3" fill="#6b46c1"/>
<circle cx="585.22" cy="665.04" r="3" fill="#6b46c1"/>
<circle cx="780.00" cy="702.55" r="3" fill="#6b46c1"/>
<line x1="660" y1="601" x2="676" y2="601" stroke="#6b46c1" stroke-width="2"/>
<text x="680" y="605" font-size="10" font-family="monospace">DFC free-exclusive, excl=10%</text>
<polyline fill="none" stroke="#0f766e" stroke-width="2" points="460.00,697.54 585.22,695.04 780.00,692.54"/>
<circle cx="460.00" cy="697.54" r="3" fill="#0f766e"/>
<circle cx="585.22" cy="695.04" r="3" fill="#0f766e"/>
<circle cx="780.00" cy="692.54" r="3" fill="#0f766e"/>
<line x1="660" y1="615" x2="676" y2="615" stroke="#0f766e" stroke-width="2"/>
<text x="680" y="619" font-size="10" font-family="monospace">DFC penalized-exclusive, excl=3%</text>
<polyline fill="none" stroke="#9f1239" stroke-width="2" points="460.00,705.05 585.22,705.05 780.00,702.55"/>
<circle cx="460.00" cy="705.05" r="3" fill="#9f1239"/>
<circle cx="585.22" cy="705.05" r="3" fill="#9f1239"/>
<circle cx="780.00" cy="702.55" r="3" fill="#9f1239"/>
<line x1="660" y1="629" x2="676" y2="629" stroke="#9f1239" stroke-width="2"/>
<text x="680" y="633" font-size="10" font-family="monospace">DFC penalized-exclusive, excl=5%</text>
<polyline fill="none" stroke="#4a5568" stroke-width="2" points="460.00,695.04 780.00,700.05"/>
<circle cx="460.00" cy="695.04" r="3" fill="#4a5568"/>
<circle cx="780.00" cy="700.05" r="3" fill="#4a5568"/>
<line x1="660" y1="643" x2="676" y2="643" stroke="#4a5568" stroke-width="2"/>
<text x="680" y="647" font-size="10" font-family="monospace">DFC penalized-exclusive, excl=10%</text>
</svg>
